<svg width="25" height="25" viewBox="0 0 25 25" fill="none" xmlns="http://www.w3.org/2000/svg">
<path fill-rule="evenodd" clip-rule="evenodd" d="M13.5416 2.60419C13.8292 2.60419 14.0624 2.83737 14.0624 3.12502V8.85419H19.7916C20.0792 8.85419 20.3124 9.08737 20.3124 9.37502C20.3124 9.66267 20.0792 9.89585 19.7916 9.89585H13.5416C13.2539 9.89585 13.0208 9.66267 13.0208 9.37502V3.12502C13.0208 2.83737 13.2539 2.60419 13.5416 2.60419Z" fill="#767676"/>
<path fill-rule="evenodd" clip-rule="evenodd" d="M4.6875 3.12502C4.6875 2.83737 4.92069 2.60419 5.20833 2.60419H13.5417C13.6798 2.60419 13.8123 2.65906 13.91 2.75674L20.16 9.00674C20.2576 9.10441 20.3125 9.23689 20.3125 9.37502V21.875C20.3125 22.1627 20.0793 22.3959 19.7917 22.3959H5.20833C4.92069 22.3959 4.6875 22.1627 4.6875 21.875V3.12502ZM5.72917 3.64585V21.3542H19.2708V9.59076L13.3259 3.64585H5.72917Z" fill="#767676"/>
</svg>
